<svg width="147" height="147" viewBox="0 0 147 147" fill="none" xmlns="http://www.w3.org/2000/svg">
<path d="M146.109 73.044C146.109 113.385 113.406 146.088 73.0646 146.088C32.7246 146.088 0.0219727 113.385 0.0219727 73.044C0.0219727 32.7027 32.7246 1.52588e-05 73.0646 1.52588e-05C113.406 1.52588e-05 146.109 32.7027 146.109 73.044Z" fill="#CCFF00"/>
<path d="M97.1019 67.677H49.7592C49.8046 67.385 46.2086 76.241 46.2086 76.241H97.4446C97.4446 76.241 106.351 76.3036 106.351 85.1476C106.351 94.269 97.4446 94.053 97.4446 94.053L36.9432 94.041C36.9432 94.041 28.0366 95.753 24.2686 102.656L97.2272 102.61C97.2272 102.61 114.925 102.617 114.925 85.3183C114.925 67.733 97.1019 67.677 97.1019 67.677Z" stroke="#38006B" stroke-width="4.11733" stroke-miterlimit="10"/>
<path d="M102.377 34.0831L57.5264 34.1564C40.4517 34.1564 35.5184 49.4884 35.5184 49.4884L16.3184 93.883C28.669 94.0604 34.9117 84.055 34.9117 84.055L47.4384 54.8764C47.4384 54.8764 49.597 47.3591 57.653 47.3591C57.613 47.3351 73.6184 47.411 73.5597 47.3644H102.365C102.365 47.3644 112.965 47.3977 112.965 57.7284C112.965 61.5057 111.616 63.0471 110.806 64.3964C110.806 64.3964 113.197 65.4751 116.088 68.7524C119.57 72.6991 119.886 74.4911 119.904 74.4564C119.942 74.3791 126.378 68.6057 126.378 57.8057C126.378 34.159 102.377 34.0831 102.377 34.0831Z" fill="#38006B"/>
</svg>
